<svg xmlns="http://www.w3.org/2000/svg" version="1.1" xmlns:xlink="http://www.w3.org/1999/xlink" xmlns:svgjs="http://svgjs.dev/svgjs" width="1440" height="560" preserveAspectRatio="none" viewBox="0 0 1440 560"><g mask="url(&quot;#SvgjsMask1960&quot;)" fill="none"><rect width="1440" height="560" x="0" y="0" fill="url(&quot;#SvgjsLinearGradient1961&quot;)"></rect><path d="M1440 0L1228.28 0L1440 115.01z" fill="rgba(255, 255, 255, .1)"></path><path d="M1228.28 0L1440 115.01L1440 165.12L1002.79 0z" fill="rgba(255, 255, 255, .075)"></path><path d="M1002.79 0L1440 165.12L1440 208.38L406.4699999999999 0z" fill="rgba(255, 255, 255, .05)"></path><path d="M406.4699999999998 0L1440 208.38L1440 227.84L204.2899999999998 0z" fill="rgba(255, 255, 255, .025)"></path><path d="M0 560L54.56 560L0 522.28z" fill="rgba(0, 0, 0, .1)"></path><path d="M0 522.28L54.56 560L410.65 560L0 270.76z" fill="rgba(0, 0, 0, .075)"></path><path d="M0 270.76L410.65 560L850.06 560L0 155.2z" fill="rgba(0, 0, 0, .05)"></path><path d="M0 155.2L850.06 560L1234.8799999999999 560L0 90.05999999999999z" fill="rgba(0, 0, 0, .025)"></path></g><defs><mask id="SvgjsMask1960"><rect width="1440" height="560" fill="#ffffff"></rect></mask><linearGradient x1="50%" y1="0%" x2="50%" y2="100%" gradientUnits="userSpaceOnUse" id="SvgjsLinearGradient1961"><stop stop-color="#0e2a47" offset="0"></stop><stop stop-color="rgba(38, 94, 166, 1)" offset="1"></stop></linearGradient></defs></svg>