<svg xmlns="http://www.w3.org/2000/svg" version="1.1" xmlns:xlink="http://www.w3.org/1999/xlink" xmlns:svgjs="http://svgjs.dev/svgjs" width="1440" height="560" preserveAspectRatio="none" viewBox="0 0 1440 560"><g mask="url(&quot;#SvgjsMask1000&quot;)" fill="none"><rect width="1440" height="560" x="0" y="0" fill="#0e2a47"></rect><path d="M -490.1012015846637,459 C -394.1,389.6 -202.1,107.8 -10.101201584663748,112 C 181.9,116.2 277.9,483 469.8987984153363,480 C 661.9,477 757.9,103 949.8987984153363,97 C 1141.9,91 1331.88,448.2 1429.8987984153362,450 C 1527.92,451.8 1437.98,174.8 1440,106" stroke="rgba(51, 121, 194, 0.58)" stroke-width="2"></path><path d="M -148.99587832090327,223 C -53,260.8 139,412.6 331.0041216790967,412 C 523,411.4 619,234.6 811.0041216790967,220 C 1003,205.4 1099,334.8 1291.0041216790967,339 C 1483,343.2 1741.2,241.4 1771.0041216790967,241 C 1800.8,240.6 1506.2,317.8 1440,337" stroke="rgba(51, 121, 194, 0.58)" stroke-width="2"></path><path d="M -934.7609018296047,336 C -838.76,308.8 -646.76,193.4 -454.7609018296047,200 C -262.76,206.6 -166.76,385.2 25.239098170395323,369 C 217.24,352.8 313.24,97 505.2390981703953,119 C 697.24,141 798.29,483 985.2390981703953,479 C 1172.19,475 1349.05,175 1440,99" stroke="rgba(51, 121, 194, 0.58)" stroke-width="2"></path><path d="M -696.5369206935842,445 C -600.54,387.2 -408.54,154.4 -216.53692069358416,156 C -24.54,157.6 71.46,444.2 263.4630793064158,453 C 455.46,461.8 551.46,224.8 743.4630793064158,200 C 935.46,175.2 1084.16,344.8 1223.463079306416,329 C 1362.77,313.2 1396.69,162.6 1440,121" stroke="rgba(51, 121, 194, 0.58)" stroke-width="2"></path></g><defs><mask id="SvgjsMask1000"><rect width="1440" height="560" fill="#ffffff"></rect></mask></defs></svg>